<svg xmlns="http://www.w3.org/2000/svg" width="100" height="100" viewBox="0 0 100 100">
    <defs>
        <linearGradient id="logoGradient" x1="0%" y1="0%" x2="100%" y2="100%">
            <stop offset="0%" style="stop-color:#3b82f6;stop-opacity:1" />
            <stop offset="100%" style="stop-color:#8b5cf6;stop-opacity:1" />
        </linearGradient>
    </defs>
    <path fill="url(#logoGradient)" d="M50,5 C25.1,5 5,25.1 5,50 C5,74.9 25.1,95 50,95 C74.9,95 95,74.9 95,50 C95,25.1 74.9,5 50,5 Z M50,85 C30.7,85 15,69.3 15,50 C15,30.7 30.7,15 50,15 C69.3,15 85,30.7 85,50 C85,69.3 69.3,85 50,85 Z" />
    <path fill="white" d="M35,40 L65,40 L65,45 L35,45 Z M35,50 L65,50 L65,55 L35,55 Z M35,60 L65,60 L65,65 L35,65 Z" />
</svg> 